<svg xmlns="http://www.w3.org/2000/svg" viewBox="0 0 126.81 110.32"><defs><style>.cls-1{fill:#fff;}</style></defs><title>Ресурс 7</title><g id="Слой_2" data-name="Слой 2"><g id="Слой_1-2" data-name="Слой 1"><path class="cls-1" d="M98.5,19a14.18,14.18,0,0,0,7.31-2L125.67,5.31a2.33,2.33,0,0,0,1.14-2V2.88a2.33,2.33,0,0,0-3.5-2L103.19,12.6a11.43,11.43,0,0,1-5.88,1.56L66.42,13.8a2.37,2.37,0,0,1-.76-.14c-1.25-.44-2.25-.75-2.75-.93l-.32-.09a46.91,46.91,0,0,0-22.47.11,17.48,17.48,0,0,1-11.76-1L3.3.21A2.33,2.33,0,0,0,0,2.33v47a2.33,2.33,0,0,0,1.21,2l1.73,1A23.61,23.61,0,0,1,12,61a2.33,2.33,0,0,1-.55,3l-.17.13a10.38,10.38,0,0,0-2.5,14,10.46,10.46,0,0,0,6.61,4c.31,0,.78.05,1.12.05h.67a2.32,2.32,0,0,1,2.25,1.95A9.45,9.45,0,0,0,21.07,88a9.58,9.58,0,0,0,7.6,3.75h0a2.33,2.33,0,0,1,2.17,2.09,9.6,9.6,0,0,0,1.89,4.8,10.47,10.47,0,0,0,6.61,4c.31,0,.78.05,1.12.05a10,10,0,0,0,6.45-1.87l1-.75a8.5,8.5,0,0,0,1.54,3.9A8.94,8.94,0,0,0,55,107.42l.38.05.77,0a8.7,8.7,0,0,0,5.49-1.61h.16l1.17,1.64a6.76,6.76,0,0,0,9.29,1.61,6.9,6.9,0,0,0,2.34-8l.21.31a7.38,7.38,0,0,0,8.87,2.81,6.91,6.91,0,0,0,4.17-5,2.31,2.31,0,0,1,3-1.58,7.21,7.21,0,0,0,6.34-.89l.16-.16a7,7,0,0,0,3-5.2,2.3,2.3,0,0,1,2.76-2.09,7.69,7.69,0,0,0,8-12l-2.66-3.8a2.33,2.33,0,0,1,.14-2.85l6.86-8a28.87,28.87,0,0,1,7.44-6.19l2.79-1.62a2.33,2.33,0,0,0,1.16-2V52a2.33,2.33,0,0,0-3.48-2l-2,1.13a31,31,0,0,0-8.27,6.79l-7.26,8.43a2.37,2.37,0,0,1-2.93.49,7.71,7.71,0,0,0-9.94,11.3l.13.34h-.16a7.4,7.4,0,0,0-8.4-.13l-.16.16a7.15,7.15,0,0,0-2.91,7.16l-.83.6a7.16,7.16,0,0,0-7.49.39,7.36,7.36,0,0,0-3,5.34A2.4,2.4,0,0,1,69,93.82l-.48.31a2.24,2.24,0,0,1-1.45.35,6.62,6.62,0,0,0-4.42,1.11,7,7,0,0,0-2.77,4.54,2.36,2.36,0,0,1-1.05,1.66l-.16.1a3.27,3.27,0,0,1-2.73.65A4.16,4.16,0,0,1,53.47,101a3.28,3.28,0,0,1-.65-2.73,4.15,4.15,0,0,1,1.56-2.47l12.41-9.34a2.25,2.25,0,0,0,1-1.85,2.58,2.58,0,0,0-2.55-2.65,2.84,2.84,0,0,0-1.46.39L44,96.69a5.43,5.43,0,0,1-3.85.91,4.86,4.86,0,0,1-3.38-2.08,5,5,0,0,1,1.17-7.08L61.56,71.58a2.58,2.58,0,0,0,.88-2A2.55,2.55,0,0,0,60,67.05a2.31,2.31,0,0,0-1.93.86L34.94,84.64a4.26,4.26,0,0,0-1.28,1,2.29,2.29,0,0,1-.45.34c-2.77,1.6-6.69,1.17-8.13-.75a5.26,5.26,0,0,1,.5-6.61A2.4,2.4,0,0,1,26,78.3l2.11-1.47L53.78,59.3a2.25,2.25,0,0,0,1-1.85,2.46,2.46,0,0,0-1.07-2.16,2.35,2.35,0,0,0-2.79-.1L23.44,73.89a2.33,2.33,0,0,1-.68.6l-2.65,1.93a5.07,5.07,0,1,1-5.91-8.25L64.79,30.92a2.3,2.3,0,0,1,2.74,0A27,27,0,0,1,73.17,37a2.29,2.29,0,0,1,.27.57c5.08,15.68,11.38,15.8,15.2,13.89A4.52,4.52,0,0,0,90.85,46c-1.8-5.47-2.92-15.48-3.16-17.68a2.19,2.19,0,0,0-.24-.83,15,15,0,0,0-4-4.29A2.33,2.33,0,0,1,84.89,19l8.33.13Z"/></g></g></svg>